<?xml version="1.0" standalone="no"?>
<!DOCTYPE svg PUBLIC "-//W3C//DTD SVG 20010904//EN"
 "http://www.w3.org/TR/2001/REC-SVG-20010904/DTD/svg10.dtd">
<svg version="1.0" xmlns="http://www.w3.org/2000/svg"
 width="761.000000pt" height="739.000000pt" viewBox="0 0 761.000000 739.000000"
 preserveAspectRatio="xMidYMid meet">

<g transform="translate(0.000000,739.000000) scale(0.100000,-0.100000)"
fill="#000000" stroke="none">
<path d="M2860 7030 l-2025 -5 -41 -22 c-29 -16 -56 -44 -95 -104 l-54 -83 4
-2060 c2 -1165 7 -2070 12 -2083 5 -13 20 -40 34 -61 14 -20 453 -465 977
-989 651 -651 965 -960 993 -973 41 -20 67 -20 2130 -20 l2089 0 43 21 c26 13
57 40 80 72 l38 51 0 2102 0 2101 -38 57 c-29 44 -1218 1249 -1882 1907 -54
54 -119 86 -185 90 -30 3 -966 2 -2080 -1z m1808 -527 c4 -10 7 -315 7 -678
l0 -660 -900 0 -900 0 -105 110 c-58 61 -332 338 -609 616 -277 278 -508 514
-513 523 -5 9 -22 23 -38 31 -34 18 -42 60 -12 68 9 3 702 5 1540 6 1441 1
1523 0 1530 -16z m-3417 -415 c14 -28 214 -236 568 -592 300 -303 581 -583
623 -624 54 -52 81 -86 88 -111 16 -57 14 -1741 -2 -1742 -7 -1 -299 -1 -648
0 -349 1 -650 1 -668 1 l-33 0 4 1528 c2 840 7 1539 11 1555 12 39 32 33 57
-15z m4054 -53 c34 -59 696 -721 786 -786 38 -28 69 -54 69 -58 0 -25 -95 -31
-496 -31 -231 0 -428 3 -439 6 -20 5 -20 12 -17 431 3 349 6 432 18 455 21 41
48 36 79 -17z m-627 -2218 l2 -797 -805 2 -806 3 -2 792 c-2 697 0 793 13 797
8 2 371 3 805 2 l790 -1 3 -798z m1837 794 c3 -5 5 -683 5 -1505 0 -1063 3
-1496 11 -1496 13 0 -8 -20 -39 -37 -33 -19 -40 -17 -68 29 -14 24 -291 309
-614 633 -367 368 -591 599 -594 615 -4 14 -7 415 -9 892 -2 860 -2 867 18
871 44 9 1284 7 1290 -2z m-3979 -2155 c3 -13 4 -223 2 -467 -2 -344 -6 -449
-16 -467 -17 -30 -32 -24 -57 24 -11 22 -190 210 -410 433 -291 293 -401 398
-432 412 -44 19 -56 46 -30 67 19 16 71 18 519 20 l418 2 6 -24z m2276 15 c32
-7 1351 -1317 1345 -1335 -4 -13 -3066 -21 -3079 -8 -4 4 -8 307 -8 672 -1
630 0 665 17 672 22 8 1687 8 1725 -1z"/>
</g>
</svg>
